# xmcd
#
# Track frame offsets: 
#        150
#        22627
#        47508
#        61615
#        84999
#        100320
#        119403
#        144300
#        164461
#        182066
#        210959
#        231707
#        256568
#
# Disc length: 3658 seconds
#
# Revision: 6
# Processed by: cddbd v1.5.2PL0 Copyright (c) Steve Scherf et al.
# Submitted via: ExactAudioCopy v0.99pb5
#
DISCID=9b0e480d
DTITLE=Mark Knopfler - Sailing to Philadelphia
DYEAR=2000
DGENRE=Pop
TTITLE0=What It Is
TTITLE1=Sailing to Philadelphia [feat. James Taylor]
TTITLE2=Who's Your Baby Now
TTITLE3=Baloney Again
TTITLE4=The Last Laugh [feat. Van Morrison]
TTITLE5=Do America
TTITLE6=El Macho
TTITLE7=Prairie Wedding [feat. Gillian Welch]
TTITLE8=Wanderlust
TTITLE9=Speedway at Nazareth [feat. Gillian Welch]
TTITLE10=Junkie Doll
TTITLE11=Silvertown Blues [feat. Glenn Tilbrook]
TTITLE12=Sands of Nevada
EXTD=YEAR: 2000 ID3G: 1
EXTT0=
EXTT1=
EXTT2=
EXTT3=
EXTT4=
EXTT5=
EXTT6=
EXTT7=
EXTT8=
EXTT9=
EXTT10=
EXTT11=
EXTT12=
PLAYORDER=
